# Blender v2.79 (sub 0) OBJ File: 'Door.blend'
# www.blender.org
mtllib Door.mtl
o Circle
v -0.500000 3.000000 4.618804
v -0.500000 7.000002 2.309402
v -0.500000 7.000001 -2.309402
v -0.500000 3.000000 -4.618804
v -0.500000 6.000002 1.732052
v -0.500000 3.000000 3.464104
v -0.500000 6.000001 -1.732052
v -0.500000 3.000000 -3.464103
v -0.500000 -0.000002 -1.732052
v -0.500000 -0.000002 1.732052
v -0.500000 0.000000 2.886754
v -0.500000 0.000000 -2.886754
v 0.500000 3.000000 4.618804
v 0.500000 7.000002 2.309402
v 0.500000 7.000001 -2.309402
v 0.500000 3.000000 -4.618804
v 0.500000 0.000000 2.886754
v 0.500000 0.000000 -2.886754
v -0.200000 6.000002 1.732052
v -0.200000 6.000002 1.558849
v -0.200000 5.850003 1.818653
v -0.200000 0.149997 -1.818654
v -0.200000 3.000000 -3.464103
v -0.200000 6.000001 -1.732052
v -0.200000 6.000002 -1.558849
v -0.200000 5.850003 -1.818653
v -0.200000 3.000000 -1.413486
v -0.200000 4.374111 -0.620140
v -0.200000 1.612498 -0.974278
v -0.200000 3.000000 -1.775377
v -0.200000 -0.000002 -1.732052
v -0.200000 -0.000001 -1.558848
v -0.200000 -0.000001 1.558848
v -0.200000 0.000000 0.280973
v -0.200000 -0.000002 1.732052
v -0.200000 0.149997 1.818654
v -0.200000 6.000000 -0.280973
v -0.200000 4.387502 0.974278
v -0.200000 4.374111 0.620140
v -0.200000 3.000000 3.464104
v -0.200000 1.625890 0.620140
v -0.200000 1.612498 0.974278
v -0.200000 1.625890 -0.620140
v -0.200000 4.387502 -0.974278
v -0.200000 3.000000 1.413486
v -0.200000 3.000000 1.775377
v -0.200000 2.513341 0.280973
v -0.200000 3.000000 -0.561945
v -0.200000 3.486659 -0.280973
v -0.200000 2.513341 -0.280973
v -0.200000 -0.000000 -0.280973
v -0.200000 3.000000 0.561946
v -0.200000 3.486659 0.280973
v -0.200000 6.000000 0.280973
v -0.200000 3.000000 -0.288004
v -0.200000 3.249419 -0.144002
v -0.200000 2.750581 -0.144002
v -0.200000 3.000000 0.288005
v -0.200000 2.750581 0.144002
v -0.200000 3.249419 0.144002
v -0.200000 2.887995 -2.957003
v -0.200000 3.000000 -3.021669
v -0.200000 3.112005 -2.957003
v -0.200000 2.887995 -2.161490
v -0.200000 3.000000 -2.226156
v -0.200000 3.112005 -2.161490
v -0.200000 2.752803 -3.035056
v -0.200000 3.000000 -3.177775
v -0.200000 3.247196 -3.035056
v -0.200000 2.752803 -1.927331
v -0.200000 3.000000 -2.070050
v -0.200000 3.247196 -1.927331
v -0.200000 2.887995 2.957003
v -0.200000 3.000000 3.021669
v -0.200000 3.112005 2.957003
v -0.200000 2.887995 2.161490
v -0.200000 3.000000 2.226156
v -0.200000 3.112005 2.161490
v -0.200000 2.752803 3.035056
v -0.200000 3.000000 3.177775
v -0.200000 3.247196 3.035056
v -0.200000 2.752803 1.927331
v -0.200000 3.000000 2.070050
v -0.200000 3.247196 1.927331
vt 0.898824 0.418851
vt 0.898824 0.465983
vt 0.888724 0.465983
vt 0.888724 0.418851
vt 0.838225 0.471875
vt 0.838225 0.495441
vt 0.828125 0.495441
vt 0.828125 0.471875
vt 0.898824 0.401176
vt 0.888724 0.401176
vt 0.898824 0.489550
vt 0.888724 0.489550
vt 0.838225 0.530790
vt 0.828125 0.530790
vt 0.797826 0.412959
vt 0.797826 0.401176
vt 0.828125 0.418851
vt 0.828125 0.430634
vt 0.767526 0.430634
vt 0.757426 0.424743
vt 0.767526 0.465983
vt 0.757426 0.471875
vt 0.797826 0.483658
vt 0.797826 0.495441
vt 0.828125 0.465983
vt 0.828125 0.477767
vt 0.841255 0.524899
vt 0.841255 0.542574
vt 0.838225 0.542574
vt 0.838225 0.541690
vt 0.838225 0.524899
vt 0.863340 0.439393
vt 0.858424 0.442260
vt 0.858424 0.439465
vt 0.860944 0.437995
vt 0.858424 0.430791
vt 0.858424 0.433587
vt 0.855905 0.435056
vt 0.853509 0.433658
vt 0.844285 0.507224
vt 0.841255 0.507224
vt 0.841255 0.473642
vt 0.841255 0.471875
vt 0.844285 0.471875
vt 0.844285 0.524899
vt 0.841255 0.524899
vt 0.841255 0.524015
vt 0.841255 0.489550
vt 0.838225 0.491317
vt 0.838225 0.489550
vt 0.838225 0.488666
vt 0.838225 0.482146
vt 0.838225 0.479279
vt 0.838225 0.472759
vt 0.838225 0.471875
vt 0.841255 0.471875
vt 0.840817 0.411447
vt 0.845732 0.408580
vt 0.876032 0.461604
vt 0.871117 0.464471
vt 0.856910 0.402060
vt 0.858424 0.401176
vt 0.859939 0.402060
vt 0.859939 0.419293
vt 0.856910 0.421218
vt 0.873953 0.427467
vt 0.870788 0.429314
vt 0.873953 0.443816
vt 0.870788 0.445505
vt 0.888724 0.454200
vt 0.887209 0.455084
vt 0.888724 0.452433
vt 0.858424 0.471875
vt 0.856910 0.470991
vt 0.856910 0.453758
vt 0.859939 0.451833
vt 0.859939 0.470991
vt 0.842896 0.445584
vt 0.846061 0.443738
vt 0.842896 0.429235
vt 0.846061 0.427546
vt 0.829640 0.417967
vt 0.828125 0.420618
vt 0.828125 0.418851
vt 0.855905 0.437995
vt 0.853509 0.439393
vt 0.863340 0.433658
vt 0.860944 0.435056
vt 0.884854 0.422428
vt 0.884854 0.421108
vt 0.886220 0.420312
vt 0.886220 0.423225
vt 0.883723 0.420448
vt 0.883723 0.418855
vt 0.877896 0.425167
vt 0.877896 0.426487
vt 0.876531 0.428876
vt 0.876531 0.425964
vt 0.876765 0.424507
vt 0.874034 0.424507
vt 0.833126 0.452603
vt 0.833126 0.454196
vt 0.830629 0.452739
vt 0.831995 0.451943
vt 0.830629 0.449827
vt 0.831995 0.450623
vt 0.838953 0.447884
vt 0.840318 0.447088
vt 0.842815 0.448544
vt 0.840084 0.448544
vt 0.838953 0.446564
vt 0.840318 0.444175
vt 0.837201 0.435506
vt 0.853293 0.426119
vt 0.511848 0.448573
vt 0.512979 0.449233
vt 0.512979 0.450553
vt 0.506021 0.454612
vt 0.506021 0.453292
vt 0.504890 0.452632
vt 0.460120 0.478748
vt 0.467078 0.474689
vt 0.467078 0.476009
vt 0.468209 0.476669
vt 0.461251 0.480728
vt 0.460120 0.480068
vt 0.489068 0.463181
vt 0.489068 0.466120
vt 0.486549 0.467590
vt 0.484030 0.466120
vt 0.484030 0.463181
vt 0.486549 0.461712
vt 0.183288 0.473630
vt 0.199709 0.483209
vt 0.188532 0.489729
vt 0.175840 0.467518
vt 0.175840 0.461783
vt 0.183288 0.457439
vt 0.169409 0.449343
vt 0.170924 0.458916
vt 0.158232 0.436705
vt 0.169409 0.430185
vt 0.158561 0.455671
vt 0.142140 0.446092
vt 0.153317 0.439572
vt 0.166009 0.461783
vt 0.166009 0.467518
vt 0.158561 0.471863
vt 0.140625 0.448743
vt 0.155396 0.457360
vt 0.155396 0.473709
vt 0.152818 0.475213
vt 0.152818 0.472300
vt 0.143129 0.477952
vt 0.143129 0.480864
vt 0.140625 0.482325
vt 0.169409 0.499116
vt 0.145626 0.482321
vt 0.155315 0.476669
vt 0.169409 0.481883
vt 0.183616 0.492596
vt 0.172439 0.499116
vt 0.172439 0.479958
vt 0.170924 0.470385
vt 0.201224 0.480558
vt 0.186453 0.471941
vt 0.186453 0.455592
vt 0.189030 0.454089
vt 0.189030 0.457001
vt 0.198719 0.451350
vt 0.198719 0.448437
vt 0.201224 0.446976
vt 0.172439 0.430185
vt 0.196223 0.446981
vt 0.186534 0.452632
vt 0.172439 0.447418
vn 0.0000 0.5000 -0.8660
vn 0.0000 0.5000 0.8660
vn 0.0000 -0.5000 -0.8660
vn 0.0000 1.0000 -0.0000
vn 0.0000 -0.5000 0.8660
vn -1.0000 0.0000 0.0000
vn -0.0000 -1.0000 0.0000
vn 1.0000 0.0000 0.0000
usemtl 3
s off
f 4/1/1 3/2/1 15/3/1 16/4/1
f 2/5/2 1/6/2 13/7/2 14/8/2
f 12/9/3 4/1/3 16/4/3 18/10/3
f 3/2/4 2/11/4 14/12/4 15/3/4
f 1/6/5 11/13/5 17/14/5 13/7/5
f 8/15/6 4/16/6 12/17/6 9/18/6
f 8/15/6 7/19/6 3/20/6 4/16/6
f 5/21/6 2/22/6 3/20/6 7/19/6
f 5/21/6 6/23/6 1/24/6 2/22/6
f 6/23/6 10/25/6 11/26/6 1/24/6
f 8/27/2 9/28/2 31/29/2 22/30/2 23/31/2
f 50/32/6 47/33/6 59/34/6 57/35/6
f 49/36/6 56/37/6 60/38/6 53/39/6
f 6/40/1 40/41/1 36/42/1 35/43/1 10/44/1
f 5/45/3 19/46/3 21/47/3 40/41/3 6/40/3
f 7/48/5 8/27/5 23/31/5 26/49/5 24/50/5
f 7/48/7 24/50/7 25/51/7 37/52/7 54/53/7 20/54/7 19/55/7 5/56/7
f 54/57/6 37/58/6 49/36/6 53/39/6
f 47/33/6 50/32/6 51/59/6 34/60/6
f 25/61/6 24/62/6 26/63/6 44/64/6 28/65/6
f 28/65/6 44/64/6 30/66/6 27/67/6
f 30/66/6 29/68/6 43/69/6 27/67/6
f 31/70/6 32/71/6 43/69/6 29/68/6 22/72/6
f 35/73/6 36/74/6 42/75/6 41/76/6 33/77/6
f 41/76/6 42/75/6 46/78/6 45/79/6
f 46/78/6 38/80/6 39/81/6 45/79/6
f 20/82/6 39/81/6 38/80/6 21/83/6 19/84/6
f 53/39/6 60/38/6 58/85/6 52/86/6
f 48/87/6 55/88/6 56/37/6 49/36/6
f 52/86/6 58/85/6 59/34/6 47/33/6
f 50/32/6 57/35/6 55/88/6 48/87/6
f 61/89/6 62/90/6 68/91/6 67/92/6
f 62/90/6 63/93/6 69/94/6 68/91/6
f 65/95/6 64/96/6 70/97/6 71/98/6
f 66/99/6 65/95/6 71/98/6 72/100/6
f 63/93/6 66/99/6 72/100/6 69/94/6
f 64/96/6 61/89/6 67/92/6 70/97/6
f 73/101/6 79/102/6 80/103/6 74/104/6
f 74/104/6 80/103/6 81/105/6 75/106/6
f 77/107/6 83/108/6 82/109/6 76/110/6
f 78/111/6 84/112/6 83/108/6 77/107/6
f 75/106/6 81/105/6 84/112/6 78/111/6
f 76/110/6 82/109/6 79/102/6 73/101/6
f 14/12/8 13/7/8 17/14/8 18/10/8 16/4/8 15/3/8
f 10/44/7 35/43/7 33/77/7 34/113/7 51/59/7 32/114/7 31/70/7 9/28/7 12/17/7 18/10/7 17/14/7 11/13/7
usemtl 2
f 63/115/6 62/116/6 61/117/6 64/118/6 65/119/6 66/120/6
f 75/121/6 78/122/6 77/123/6 76/124/6 73/125/6 74/126/6
f 55/127/6 57/128/6 59/129/6 58/130/6 60/131/6 56/132/6
usemtl 1
f 43/133/6 32/134/6 51/135/6 50/136/6 48/137/6 27/138/6
f 28/139/6 27/138/6 48/137/6 49/140/6 37/141/6 25/142/6
f 39/143/6 20/144/6 54/145/6 53/146/6 52/147/6 45/148/6
f 21/149/6 38/150/6 46/151/6 83/152/6 84/153/6 81/154/6 80/155/6 40/156/6
f 36/157/6 40/156/6 80/155/6 79/158/6 82/159/6 83/152/6 46/151/6 42/160/6
f 34/161/6 33/162/6 41/163/6 45/148/6 52/147/6 47/164/6
f 22/165/6 29/166/6 30/167/6 71/168/6 70/169/6 67/170/6 68/171/6 23/172/6
f 26/173/6 23/172/6 68/171/6 69/174/6 72/175/6 71/168/6 30/167/6 44/176/6
