# This file uses centimeters as units for non-parametric coordinates.

mtllib tram3.mtl
g default
v 168.668000 183.205287 26.701204
v 176.492376 183.205287 26.701204
v 168.668000 184.205287 26.701204
v 176.492376 184.205287 26.701204
v 168.668000 184.205287 22.106095
v 176.492376 184.205287 22.106095
v 168.668000 183.205287 22.106095
v 176.492376 183.205287 22.106095
v 168.668000 183.205287 27.523273
v 176.492376 183.205287 27.523273
v 176.492376 184.205287 27.523273
v 168.668000 184.205287 27.523273
v 168.668000 184.205287 21.284026
v 176.492376 184.205287 21.284026
v 176.492376 183.205287 21.284026
v 168.668000 183.205287 21.284026
v 170.782145 180.342616 28.514934
v 178.606525 180.342616 28.514934
v 178.606525 180.342616 29.337007
v 170.782145 180.342616 29.337007
v 170.782145 180.342616 20.292365
v 178.606525 180.342616 20.292365
v 170.782145 180.342616 19.470292
v 178.606525 180.342616 19.470292
v 170.782145 175.617457 28.514934
v 178.606525 175.617457 28.514934
v 178.606525 175.617457 29.337007
v 170.782145 175.617457 29.337007
v 170.782145 175.617457 20.292365
v 178.606525 175.617457 20.292365
v 170.782145 175.617457 19.470292
v 178.606525 175.617457 19.470292
vt 0.375000 0.000000
vt 0.625000 0.000000
vt 0.375000 0.250000
vt 0.625000 0.250000
vt 0.375000 0.500000
vt 0.625000 0.500000
vt 0.375000 0.750000
vt 0.625000 0.750000
vt 0.375000 1.000000
vt 0.625000 1.000000
vt 0.875000 0.000000
vt 0.875000 0.250000
vt 0.125000 0.000000
vt 0.125000 0.250000
vt 0.375000 0.000000
vt 0.625000 0.000000
vt 0.625000 0.250000
vt 0.375000 0.250000
vt 0.375000 0.500000
vt 0.625000 0.500000
vt 0.625000 0.750000
vt 0.375000 0.750000
vt 0.375000 0.000000
vt 0.625000 0.000000
vt 0.625000 0.000000
vt 0.375000 0.000000
vt 0.625000 0.750000
vt 0.375000 0.750000
vt 0.375000 0.750000
vt 0.625000 0.750000
vt 0.375000 0.000000
vt 0.625000 0.000000
vt 0.625000 0.000000
vt 0.375000 0.000000
vt 0.625000 0.750000
vt 0.375000 0.750000
vt 0.375000 0.750000
vt 0.625000 0.750000
vn 0.000000 0.000000 1.000000
vn 0.000000 0.000000 1.000000
vn 0.000000 0.000000 1.000000
vn 0.000000 0.000000 1.000000
vn 0.000000 1.000000 0.000000
vn 0.000000 1.000000 0.000000
vn 0.000000 1.000000 0.000000
vn 0.000000 1.000000 0.000000
vn 0.000000 0.000000 -1.000000
vn 0.000000 0.000000 -1.000000
vn 0.000000 0.000000 -1.000000
vn 0.000000 0.000000 -1.000000
vn 0.000000 -1.000000 0.000000
vn 0.000000 -1.000000 0.000000
vn 0.000000 -1.000000 0.000000
vn 0.000000 -1.000000 0.000000
vn 1.000000 0.000000 0.000000
vn 1.000000 0.000000 0.000000
vn 1.000000 0.000000 0.000000
vn 1.000000 0.000000 0.000000
vn -1.000000 0.000000 0.000000
vn -1.000000 0.000000 0.000000
vn -1.000000 0.000000 0.000000
vn -1.000000 0.000000 0.000000
vn 0.000000 -1.000000 0.000000
vn 0.000000 -1.000000 0.000000
vn 0.000000 -1.000000 0.000000
vn 0.000000 -1.000000 0.000000
vn 1.000000 0.000000 0.000000
vn 1.000000 0.000000 0.000000
vn 0.000000 1.000000 0.000000
vn 0.000000 1.000000 0.000000
vn -1.000000 0.000000 0.000000
vn -1.000000 0.000000 0.000000
vn 0.000000 1.000000 0.000000
vn 0.000000 1.000000 0.000000
vn 1.000000 0.000000 0.000000
vn 1.000000 0.000000 0.000000
vn 0.000000 -1.000000 0.000000
vn 0.000000 -1.000000 0.000000
vn 0.000000 -1.000000 0.000000
vn 0.000000 -1.000000 0.000000
vn -1.000000 0.000000 0.000000
vn -1.000000 0.000000 0.000000
vn 0.000000 -0.535201 -0.844725
vn 0.000000 -0.535201 -0.844725
vn 0.000000 -0.535201 -0.844725
vn 0.000000 -0.535201 -0.844725
vn 0.804409 0.594075 0.000000
vn 0.804409 0.594075 0.000000
vn 0.804409 0.594075 0.000000
vn 0.804409 0.594075 0.000000
vn 0.000000 0.535201 0.844724
vn 0.000000 0.535201 0.844724
vn 0.000000 0.535201 0.844724
vn 0.000000 0.535201 0.844724
vn -0.804410 -0.594075 0.000000
vn -0.804410 -0.594075 0.000000
vn -0.804410 -0.594075 0.000000
vn -0.804410 -0.594075 0.000000
vn 0.000000 -0.535201 0.844725
vn 0.000000 -0.535201 0.844725
vn 0.000000 -0.535201 0.844725
vn 0.000000 -0.535201 0.844725
vn -0.804410 -0.594075 0.000000
vn -0.804410 -0.594075 0.000000
vn -0.804410 -0.594075 0.000000
vn -0.804410 -0.594075 0.000000
vn 0.000000 0.535201 -0.844724
vn 0.000000 0.535201 -0.844724
vn 0.000000 0.535201 -0.844724
vn 0.000000 0.535201 -0.844724
vn 0.804409 0.594075 0.000000
vn 0.804410 0.594075 0.000000
vn 0.804410 0.594075 0.000000
vn 0.804410 0.594075 0.000000
vn 0.000000 0.000000 -1.000000
vn 0.000000 0.000000 -1.000000
vn 0.000000 0.000000 -1.000000
vn 0.000000 0.000000 -1.000000
vn 1.000000 0.000000 0.000000
vn 1.000000 0.000000 0.000000
vn 1.000000 0.000000 0.000000
vn 1.000000 0.000000 0.000000
vn 0.000000 0.000000 1.000000
vn 0.000000 0.000000 1.000000
vn 0.000000 0.000000 1.000000
vn 0.000000 0.000000 1.000000
vn -1.000000 0.000000 0.000000
vn -1.000000 0.000000 0.000000
vn -1.000000 0.000000 0.000000
vn -1.000000 0.000000 0.000000
vn 0.000000 0.000000 1.000000
vn 0.000000 0.000000 1.000000
vn 0.000000 0.000000 1.000000
vn 0.000000 0.000000 1.000000
vn -1.000000 0.000000 0.000000
vn -1.000000 0.000000 0.000000
vn -1.000000 0.000000 0.000000
vn -1.000000 0.000000 0.000000
vn 0.000000 0.000000 -1.000000
vn 0.000000 0.000000 -1.000000
vn 0.000000 0.000000 -1.000000
vn 0.000000 0.000000 -1.000000
vn 1.000000 0.000000 0.000000
vn 1.000000 0.000000 0.000000
vn 1.000000 0.000000 0.000000
vn 1.000000 0.000000 0.000000
s off
g tram_anchor1 tram_group_3
usemtl blinn11SG
f 9/15/1 10/16/2 11/17/3 12/18/4
s 1
f 3/3/5 4/4/6 6/6/7 5/5/8
s off
f 13/19/9 14/20/10 15/21/11 16/22/12
f 7/7/13 8/8/14 2/10/15 1/9/16
s 2
f 2/2/17 8/11/18 6/12/19 4/4/20
s 3
f 7/13/21 1/1/22 3/3/23 5/14/24
s off
f 25/31/25 26/32/26 27/33/27 28/34/28
s 2
f 2/2/17 4/4/20 11/17/29 10/16/30
s 1
f 4/4/6 3/3/5 12/18/31 11/17/32
s 3
f 3/3/23 1/1/22 9/15/33 12/18/34
s 1
f 5/5/8 6/6/7 14/20/35 13/19/36
s 2
f 6/6/19 8/8/18 15/21/37 14/20/38
s off
f 30/35/39 29/36/40 31/37/41 32/38/42
s 3
f 7/7/21 5/5/24 13/19/43 16/22/44
s off
f 1/1/45 2/2/46 18/24/47 17/23/48
f 2/2/49 10/16/50 19/25/51 18/24/52
f 10/16/53 9/15/54 20/26/55 19/25/56
f 9/15/57 1/1/58 17/23/59 20/26/60
f 8/8/61 7/7/62 21/28/63 22/27/64
f 7/7/65 16/22/66 23/29/67 21/28/68
f 16/22/69 15/21/70 24/30/71 23/29/72
f 15/21/73 8/8/74 22/27/75 24/30/76
f 17/23/77 18/24/78 26/32/79 25/31/80
f 18/24/81 19/25/82 27/33/83 26/32/84
f 19/25/85 20/26/86 28/34/87 27/33/88
f 20/26/89 17/23/90 25/31/91 28/34/92
f 22/27/93 21/28/94 29/36/95 30/35/96
f 21/28/97 23/29/98 31/37/99 29/36/100
f 23/29/101 24/30/102 32/38/103 31/37/104
f 24/30/105 22/27/106 30/35/107 32/38/108
g default
v 151.880472 159.190395 34.693084
v 196.714239 159.190395 34.693084
v 151.880472 176.206598 34.693084
v 196.714239 176.206598 34.693084
v 151.880472 176.206598 14.399746
v 196.714239 176.206598 14.399746
v 151.880472 159.190395 14.399746
v 196.714239 159.190395 14.399746
v 193.630785 159.190395 34.693084
v 193.630785 159.190395 14.399746
v 193.630785 176.206598 14.399746
v 193.630785 176.206598 34.693084
v 155.952973 159.190395 34.693084
v 155.952973 159.190395 14.399746
v 155.952973 176.206598 14.399746
v 155.952973 176.206598 34.693084
v 193.630785 176.206598 31.310860
v 196.714239 176.206598 31.310860
v 196.714239 159.190395 31.310860
v 193.630785 159.190395 31.310860
v 155.952973 159.190395 31.310860
v 151.880472 159.190395 31.310860
v 151.880472 176.206598 31.310860
v 155.952973 176.206598 31.310860
v 193.630785 176.206598 17.781969
v 196.714239 176.206598 17.781969
v 196.714239 159.190395 17.781969
v 193.630785 159.190395 17.781969
v 155.952973 159.190395 17.781969
v 151.880472 159.190395 17.781969
v 151.880472 176.206598 17.781969
v 155.952973 176.206598 17.781969
v 193.630785 177.309109 14.399746
v 193.630785 177.309109 17.781969
v 196.714239 177.309109 17.781969
v 196.714239 177.309109 14.399746
v 155.952973 177.309109 14.399746
v 155.952973 177.309109 17.781969
v 151.880472 177.309109 17.781969
v 151.880472 177.309109 14.399746
v 193.630785 177.309109 31.310860
v 193.630785 177.309109 34.693084
v 196.714239 177.309109 34.693084
v 196.714239 177.309109 31.310860
v 151.880472 177.309109 34.693084
v 155.952973 177.309109 34.693084
v 155.952973 177.309109 31.310860
v 151.880472 177.309109 31.310860
v 193.630785 160.639013 17.781969
v 155.952973 160.639013 17.781969
v 193.630785 160.639013 31.310860
v 155.952973 160.639013 31.310860
v 151.880472 161.224512 34.693084
v 155.952973 161.224512 34.693084
v 193.630785 161.224512 34.693084
v 196.714239 161.224512 34.693084
v 196.714239 161.224512 31.310860
v 196.714239 161.224512 17.781969
v 196.714239 161.224512 14.399746
v 193.630785 161.224512 14.399746
v 155.952973 161.224512 14.399746
v 151.880472 161.224512 14.399746
v 151.880472 161.224512 17.781969
v 151.880472 161.224512 31.310860
v 195.415636 161.224512 31.310860
v 195.415636 161.224512 17.781969
v 195.415636 176.206598 17.781969
v 195.415636 176.206598 31.310860
v 193.630785 161.224512 15.794585
v 155.952973 161.224512 15.794585
v 155.952973 176.206598 15.794585
v 193.630785 176.206598 15.794585
v 155.952973 176.206598 33.298249
v 155.952973 161.224512 33.298249
v 193.630785 161.224512 33.298249
v 193.630785 176.206598 33.298249
v 153.431111 161.224512 17.781969
v 153.431111 176.206598 17.781969
v 153.431111 161.224512 31.310860
v 153.431111 176.206598 31.310860
vt 0.375000 0.000000
vt 0.625000 0.000000
vt 0.375000 0.250000
vt 0.625000 0.250000
vt 0.375000 0.500000
vt 0.625000 0.500000
vt 0.375000 0.750000
vt 0.625000 0.750000
vt 0.375000 1.000000
vt 0.625000 1.000000
vt 0.875000 0.000000
vt 0.875000 0.250000
vt 0.125000 0.000000
vt 0.125000 0.250000
vt 0.607806 0.000000
vt 0.607806 1.000000
vt 0.607806 0.750000
vt 0.607806 0.500000
vt 0.607806 0.250000
vt 0.397709 0.000000
vt 0.397709 1.000000
vt 0.397709 0.750000
vt 0.397709 0.500000
vt 0.397709 0.250000
vt 0.607806 0.291667
vt 0.625000 0.291667
vt 0.666667 0.250000
vt 0.625000 0.958333
vt 0.666667 0.000000
vt 0.607806 0.958333
vt 0.397709 0.958333
vt 0.333333 0.000000
vt 0.375000 0.958333
vt 0.333333 0.250000
vt 0.375000 0.291667
vt 0.397709 0.291667
vt 0.607806 0.458333
vt 0.625000 0.458333
vt 0.833333 0.250000
vt 0.625000 0.791667
vt 0.833333 0.000000
vt 0.607806 0.791667
vt 0.397709 0.791667
vt 0.166667 0.000000
vt 0.375000 0.791667
vt 0.166667 0.250000
vt 0.375000 0.458333
vt 0.397709 0.458333
vt 0.625000 0.458333
vt 0.625000 0.500000
vt 0.607806 0.500000
vt 0.397709 0.458333
vt 0.607806 0.458333
vt 0.397709 0.500000
vt 0.375000 0.500000
vt 0.375000 0.458333
vt 0.607806 0.250000
vt 0.625000 0.250000
vt 0.625000 0.291667
vt 0.375000 0.250000
vt 0.397709 0.250000
vt 0.375000 0.291667
vt 0.607806 0.291667
vt 0.397709 0.291667
vt 0.397709 0.791667
vt 0.607806 0.791667
vt 0.607806 0.958333
vt 0.397709 0.958333
vt 0.375000 0.029885
vt 0.397709 0.029885
vt 0.607806 0.029885
vt 0.625000 0.029885
vt 0.666667 0.029885
vt 0.833333 0.029885
vt 0.625000 0.720115
vt 0.875000 0.029885
vt 0.607806 0.720115
vt 0.397709 0.720115
vt 0.125000 0.029885
vt 0.375000 0.720115
vt 0.166667 0.029885
vt 0.333333 0.029885
vt 0.666667 0.029885
vt 0.833333 0.029885
vt 0.833333 0.250000
vt 0.666667 0.250000
vt 0.607806 0.720115
vt 0.397709 0.720115
vt 0.397709 0.500000
vt 0.607806 0.500000
vt 0.397709 0.250000
vt 0.397709 0.029885
vt 0.607806 0.029885
vt 0.607806 0.250000
vt 0.166667 0.250000
vt 0.166667 0.029885
vt 0.333333 0.029885
vt 0.333333 0.250000
vt 0.397709 0.791667
vt 0.607806 0.791667
vt 0.607806 0.791667
vt 0.397709 0.791667
vt 0.607806 0.791667
vt 0.607806 0.958333
vt 0.607806 0.958333
vt 0.607806 0.791667
vt 0.607806 0.958333
vt 0.397709 0.958333
vt 0.397709 0.958333
vt 0.607806 0.958333
vt 0.397709 0.958333
vt 0.397709 0.791667
vt 0.397709 0.791667
vt 0.397709 0.958333
vt 0.397709 0.291667
vt 0.397709 0.458333
vt 0.397709 0.458333
vt 0.397709 0.291667
vt 0.375000 0.458333
vt 0.375000 0.291667
vt 0.375000 0.291667
vt 0.375000 0.458333
vn 0.000000 0.000000 1.000000
vn 0.000000 0.000000 1.000000
vn 0.000000 0.000000 1.000000
vn 0.000000 0.000000 1.000000
vn 0.000000 1.000000 0.000000
vn 0.000000 1.000000 0.000000
vn 0.000000 1.000000 0.000000
vn 0.000000 1.000000 0.000000
vn 0.000000 0.000000 -1.000000
vn 0.000000 0.000000 -1.000000
vn 0.000000 0.000000 -1.000000
vn 0.000000 0.000000 -1.000000
vn 0.000000 -1.000000 0.000000
vn 0.000000 -1.000000 0.000000
vn 0.000000 -1.000000 0.000000
vn 0.000000 -1.000000 0.000000
vn 1.000000 0.000000 0.000000
vn 1.000000 0.000000 0.000000
vn 1.000000 0.000000 0.000000
vn 1.000000 0.000000 0.000000
vn -1.000000 0.000000 0.000000
vn -1.000000 0.000000 0.000000
vn -1.000000 0.000000 0.000000
vn -1.000000 0.000000 0.000000
vn 0.000000 -1.000000 0.000000
vn 0.000000 -1.000000 0.000000
vn 0.000000 0.000000 -1.000000
vn 0.000000 0.000000 -1.000000
vn 0.000000 0.000000 -1.000000
vn 0.000000 0.000000 -1.000000
vn 0.000000 1.000000 0.000000
vn 0.000000 1.000000 0.000000
vn 0.000000 0.000000 1.000000
vn 0.000000 0.000000 1.000000
vn 0.000000 0.000000 1.000000
vn 0.000000 0.000000 1.000000
vn 0.000000 -1.000000 0.000000
vn 0.000000 -1.000000 0.000000
vn 0.000000 0.000000 -1.000000
vn 0.000000 0.000000 -1.000000
vn 0.000000 0.000000 -1.000000
vn 0.000000 0.000000 -1.000000
vn 0.000000 1.000000 0.000000
vn 0.000000 1.000000 0.000000
vn 0.000000 0.000000 1.000000
vn 0.000000 0.000000 1.000000
vn 0.000000 0.000000 1.000000
vn 0.000000 0.000000 1.000000
vn 0.000000 1.000000 0.000000
vn 0.000000 1.000000 0.000000
vn 0.000000 1.000000 0.000000
vn 0.000000 1.000000 0.000000
vn 1.000000 0.000000 0.000000
vn 1.000000 0.000000 0.000000
vn 1.000000 0.000000 0.000000
vn 1.000000 0.000000 0.000000
vn 0.000000 -1.000000 0.000000
vn 0.000000 -1.000000 0.000000
vn 0.000000 -1.000000 0.000000
vn 0.000000 -1.000000 0.000000
vn 0.000000 -1.000000 0.000000
vn 0.000000 -1.000000 0.000000
vn 0.000000 -1.000000 0.000000
vn 0.000000 -1.000000 0.000000
vn -1.000000 0.000000 0.000000
vn -1.000000 0.000000 0.000000
vn -1.000000 0.000000 0.000000
vn -1.000000 0.000000 0.000000
vn 0.000000 1.000000 0.000000
vn 0.000000 1.000000 0.000000
vn 0.000000 1.000000 0.000000
vn 0.000000 1.000000 0.000000
vn 1.000000 0.000000 0.000000
vn 1.000000 0.000000 0.000000
vn 1.000000 0.000000 0.000000
vn 1.000000 0.000000 0.000000
vn 0.000000 -1.000000 0.000000
vn 0.000000 -1.000000 0.000000
vn 0.000000 -1.000000 0.000000
vn 0.000000 -1.000000 0.000000
vn -1.000000 0.000000 0.000000
vn -1.000000 0.000000 0.000000
vn -1.000000 0.000000 0.000000
vn -1.000000 0.000000 0.000000
vn 0.000000 1.000000 0.000000
vn 0.000000 1.000000 0.000000
vn 0.000000 1.000000 0.000000
vn 0.000000 1.000000 0.000000
vn 1.000000 0.000000 0.000000
vn 1.000000 0.000000 0.000000
vn 0.000000 0.000000 -1.000000
vn 0.000000 0.000000 -1.000000
vn 0.000000 0.000000 1.000000
vn 0.000000 0.000000 1.000000
vn 0.000000 0.000000 1.000000
vn 0.000000 0.000000 1.000000
vn 0.000000 0.000000 -1.000000
vn 0.000000 0.000000 -1.000000
vn -1.000000 0.000000 0.000000
vn -1.000000 0.000000 0.000000
vn 0.000000 0.000000 1.000000
vn 0.000000 0.000000 1.000000
vn 1.000000 0.000000 0.000000
vn 1.000000 0.000000 0.000000
vn 0.000000 0.000000 1.000000
vn 0.000000 0.000000 1.000000
vn -1.000000 0.000000 0.000000
vn -1.000000 0.000000 0.000000
vn 0.000000 0.000000 -1.000000
vn 0.000000 0.000000 -1.000000
vn 0.000000 0.000000 -1.000000
vn 0.000000 0.000000 -1.000000
vn -1.000000 0.000000 0.000000
vn -1.000000 0.000000 0.000000
vn -1.000000 0.000000 0.000000
vn -1.000000 0.000000 0.000000
vn 1.000000 0.000000 0.000000
vn 1.000000 0.000000 0.000000
vn 1.000000 0.000000 0.000000
vn 1.000000 0.000000 0.000000
vn 0.000000 0.000000 1.000000
vn 0.000000 0.000000 1.000000
vn 0.000000 0.000000 1.000000
vn 0.000000 0.000000 1.000000
vn -1.000000 0.000000 0.000000
vn -1.000000 0.000000 0.000000
vn -1.000000 0.000000 0.000000
vn -1.000000 0.000000 0.000000
vn 0.000000 0.000000 -1.000000
vn 0.000000 0.000000 -1.000000
vn 0.000000 0.000000 -1.000000
vn 0.000000 0.000000 -1.000000
vn 1.000000 0.000000 0.000000
vn 1.000000 0.000000 0.000000
vn 1.000000 0.000000 0.000000
vn 1.000000 0.000000 0.000000
vn 0.000000 0.000000 1.000000
vn 0.000000 0.000000 1.000000
vn 0.000000 0.000000 1.000000
vn 0.000000 0.000000 1.000000
vn 1.000000 0.000000 0.000000
vn 1.000000 0.000000 0.000000
vn 1.000000 0.000000 0.000000
vn 1.000000 0.000000 0.000000
vn 0.000000 0.000000 -1.000000
vn 0.000000 0.000000 -1.000000
vn 0.000000 0.000000 -1.000000
vn 0.000000 0.000000 -1.000000
vn -1.000000 0.000000 0.000000
vn -1.000000 0.000000 0.000000
vn -1.000000 0.000000 0.000000
vn -1.000000 0.000000 0.000000
vn 0.000000 1.000000 0.000000
vn 0.000000 1.000000 0.000000
vn 0.000000 1.000000 0.000000
vn 0.000000 1.000000 0.000000
vn 0.000000 0.000000 1.000000
vn 0.000000 0.000000 1.000000
vn 0.000000 0.000000 1.000000
vn 0.000000 0.000000 1.000000
vn 0.000000 -1.000000 0.000000
vn 0.000000 -1.000000 0.000000
vn 0.000000 -1.000000 0.000000
vn 0.000000 -1.000000 0.000000
vn 0.000000 0.000000 -1.000000
vn 0.000000 0.000000 -1.000000
vn 0.000000 0.000000 -1.000000
vn 0.000000 0.000000 -1.000000
vn 0.000000 1.000000 0.000000
vn 0.000000 1.000000 0.000000
vn 0.000000 1.000000 0.000000
vn 0.000000 1.000000 0.000000
vn 1.000000 0.000000 0.000000
vn 1.000000 0.000000 0.000000
vn 1.000000 0.000000 0.000000
vn 1.000000 0.000000 0.000000
vn 0.000000 -1.000000 0.000000
vn 0.000000 -1.000000 0.000000
vn 0.000000 -1.000000 0.000000
vn 0.000000 -1.000000 0.000000
vn -1.000000 0.000000 0.000000
vn -1.000000 0.000000 0.000000
vn -1.000000 0.000000 0.000000
vn -1.000000 0.000000 0.000000
vn 1.000000 0.000000 0.000000
vn 1.000000 0.000000 0.000000
vn 1.000000 0.000000 0.000000
vn 1.000000 0.000000 0.000000
vn 0.000000 1.000000 0.000000
vn 0.000000 1.000000 0.000000
vn 0.000000 1.000000 0.000000
vn 0.000000 1.000000 0.000000
vn -1.000000 0.000000 0.000000
vn -1.000000 0.000000 0.000000
vn -1.000000 0.000000 0.000000
vn -1.000000 0.000000 0.000000
vn 0.000000 -1.000000 0.000000
vn 0.000000 -1.000000 0.000000
vn 0.000000 -1.000000 0.000000
vn 0.000000 -1.000000 0.000000
vn 0.000000 0.000000 1.000000
vn 0.000000 0.000000 1.000000
vn 0.000000 0.000000 1.000000
vn 0.000000 0.000000 1.000000
vn 0.000000 1.000000 0.000000
vn 0.000000 1.000000 0.000000
vn 0.000000 1.000000 0.000000
vn 0.000000 1.000000 0.000000
vn 0.000000 0.000000 -1.000000
vn 0.000000 0.000000 -1.000000
vn 0.000000 0.000000 -1.000000
vn 0.000000 0.000000 -1.000000
vn 0.000000 -1.000000 0.000000
vn 0.000000 -1.000000 0.000000
vn 0.000000 -1.000000 0.000000
vn 0.000000 -1.000000 0.000000
s 1
g tram_group_3 tram_cargo1
usemtl blinn12SG
f 44/57/109 87/109/110 88/110/111 36/42/112
s 2
f 65/89/113 66/91/114 67/87/115 68/88/116
s 3
f 91/113/117 92/115/118 43/56/119 38/44/120
s 4
f 60/80/121 42/55/122 40/46/123 59/78/124
s 5
f 90/112/125 91/114/126 38/50/127 58/77/128
s 6
f 94/117/129 95/119/130 63/84/131 37/52/132
s 4
f 61/81/133 46/60/134 42/55/122 60/80/121
s off
f 101/125/135 102/126/136 103/127/137 104/128/138
s 2
f 69/92/139 70/90/140 66/91/114 65/89/113
s off
f 105/129/141 106/130/142 107/131/143 108/132/144
s 4
f 39/45/145 46/60/134 61/81/133 62/83/146
s 3
f 37/43/147 47/61/148 93/116/149 94/118/150
s 2
f 71/94/151 70/90/140 69/92/139 72/93/152
s 1
f 85/107/153 86/108/154 48/62/155 35/41/156
s 2
f 73/101/157 74/95/158 75/96/159 76/97/160
s 5
f 88/110/161 89/111/162 50/65/163 36/42/164
s 4
f 41/54/165 52/68/166 51/66/167 34/48/168
f 45/59/169 53/69/170 52/68/166 41/54/165
f 54/71/171 53/69/170 45/59/169 33/47/172
s 6
f 55/72/173 96/120/174 85/107/175 35/41/176
s 2
f 77/98/177 78/99/178 79/102/179 80/100/180
f 73/101/157 79/102/179 78/99/178 74/95/158
f 67/87/115 66/91/114 73/101/157 76/97/160
s off
f 97/121/181 98/122/182 99/123/183 100/124/184
s 4
f 60/80/121 59/78/124 51/66/167 52/68/166
s off
f 82/103/185 81/104/186 83/105/187 84/106/188
s 4
f 54/71/171 62/83/146 61/81/133 53/69/170
s off
f 110/133/189 109/134/190 111/135/191 112/136/192
s 2
f 79/102/179 70/90/140 71/94/151 80/100/180
s off
f 49/63/193 57/75/194 64/86/195 56/74/196
s 5
f 58/76/128 38/44/127 68/88/197 67/87/198
s 3
f 38/44/120 43/56/119 65/89/199 68/88/200
s off
f 64/86/201 57/75/202 66/91/203 70/90/204
s 3
f 43/56/119 47/61/148 69/92/205 65/89/199
f 47/61/148 37/43/147 72/93/206 69/92/205
s 6
f 37/43/132 63/85/131 71/94/207 72/93/208
s 1
f 44/57/109 36/42/112 75/96/209 74/95/210
s 5
f 36/42/164 50/64/163 76/97/211 75/96/212
s 1
f 35/41/156 48/62/155 78/99/213 77/98/214
s 6
f 55/73/173 35/41/176 77/98/215 80/100/216
s off
f 49/63/217 56/74/218 79/102/219 73/101/220
s 1
f 48/62/155 44/57/109 74/95/210 78/99/213
s off
f 57/75/221 49/63/222 73/101/223 66/91/224
s 5
f 50/64/163 58/76/128 67/87/198 76/97/211
s off
f 56/137/225 64/138/226 70/139/227 79/140/228
s 6
f 63/141/131 55/142/173 80/143/216 71/144/207
s off
f 61/145/229 60/146/230 81/147/231 82/148/232
f 60/149/233 52/150/234 83/151/235 81/152/236
f 52/153/237 53/154/238 84/155/239 83/156/240
f 53/157/241 61/158/242 82/159/243 84/160/244
s 1
f 33/39/245 45/58/246 86/108/154 85/107/153
f 87/109/110 86/108/154 45/58/246 41/53/247
f 88/110/111 87/109/110 41/53/247 34/40/248
s 5
f 34/40/249 51/67/250 89/111/162 88/110/161
f 51/67/250 59/79/251 90/112/125 89/111/162
f 59/79/251 40/49/252 91/114/126 90/112/125
s 3
f 42/55/253 92/115/118 91/113/117 40/46/254
f 46/60/255 93/116/149 92/115/118 42/55/253
f 94/118/150 93/116/149 46/60/255 39/45/256
s 6
f 39/51/257 62/82/258 95/119/130 94/117/129
f 96/120/174 95/119/130 62/82/258 54/70/259
f 85/107/175 96/120/174 54/70/259 33/39/260
s off
f 89/111/261 90/112/262 98/122/263 97/121/264
f 90/112/265 58/77/266 99/123/267 98/122/268
f 58/77/269 50/65/270 100/124/271 99/123/272
f 50/65/273 89/111/274 97/121/275 100/124/276
f 92/115/277 93/116/278 102/126/279 101/125/280
f 93/116/281 47/61/282 103/127/283 102/126/284
f 47/61/285 43/56/286 104/128/287 103/127/288
f 43/56/289 92/115/290 101/125/291 104/128/292
f 48/62/293 86/108/294 106/130/295 105/129/296
f 86/108/297 87/109/298 107/131/299 106/130/300
f 87/109/301 44/57/302 108/132/303 107/131/304
f 44/57/305 48/62/306 105/129/307 108/132/308
f 63/84/309 95/119/310 109/134/311 110/133/312
f 95/119/313 96/120/314 111/135/315 109/134/316
f 96/120/317 55/72/318 112/136/319 111/135/320
f 55/72/321 63/84/322 110/133/323 112/136/324
